<svg width="500" height="510" viewBox="0 0 500 510" fill="none" xmlns="http://www.w3.org/2000/svg">
<circle cx="250" cy="255" r="255" fill="#B425EC"/>
<path d="M109.734 273.456C80.8535 244.202 20.6433 217.855 5.40393 240.901C-4.43732 255.767 -0.492566 301.028 14.4354 326.379C24.0898 342.76 28.0554 343.196 49.7103 356.879C71.386 370.561 109.734 273.477 109.734 273.477V273.456Z" fill="#FFAB2D"/>
<path d="M105.166 267.518C95.2001 262.722 88.0787 257.407 76.2235 249.206C58.3058 236.811 55.0669 225.662 46.2846 243.123C39.6407 256.348 19.5637 314.213 17.8404 341.66C16.9892 355.363 42.0491 356.526 53.7382 374.007C67.3581 394.396 93.0617 360.512 94.9302 357.107C110.813 328.248 116.793 273.083 105.187 267.498L105.166 267.518Z" fill="#36E4E4"/>
<path d="M313.369 450.827C317.376 461.831 334.359 460.627 343.412 471.839C349.246 479.064 355.848 465.008 347.045 462.973C330.331 459.111 335.688 449.187 327.404 438.744C322.11 432.079 309.237 439.45 313.369 450.827Z" fill="#FFA632"/>
<path d="M370.278 492.85C368.471 492.85 366.582 492.559 364.61 491.999C355.952 489.528 347.149 481.846 342.685 472.939C341.107 469.804 342.373 465.963 345.529 464.406C348.685 462.828 352.505 464.094 354.062 467.25C356.886 472.897 362.928 478.295 368.118 479.77C369.862 480.268 370.963 480.143 371.399 479.894C374.409 478.067 378.313 479.001 380.14 482.012C381.967 485.022 381.032 488.926 378.022 490.753C375.738 492.144 373.122 492.85 370.257 492.85H370.278Z" fill="#FFA632"/>
<path d="M357.758 509.875C357.198 509.875 356.616 509.791 356.035 509.646C339.342 504.954 339.446 481.763 342.124 468.807C342.851 465.36 346.214 463.16 349.661 463.866C353.107 464.572 355.308 467.956 354.602 471.381C353.107 478.69 352.256 495.362 359.481 497.376C362.866 498.331 364.838 501.84 363.883 505.224C363.094 508.027 360.54 509.875 357.758 509.875Z" fill="#FFA632"/>
<path d="M357.758 509.875C357.198 509.875 356.616 509.792 356.035 509.646C346.464 506.968 342.415 498.206 341.211 488.78C339.176 492.435 338.096 495.943 338.948 498.435C340.09 501.757 338.304 505.369 334.982 506.511C331.66 507.632 328.027 505.868 326.906 502.546C321.321 486.206 341.792 467.416 344.159 465.319C346.214 463.492 349.204 463.201 351.571 464.572C353.938 465.942 355.163 468.683 354.623 471.382C353.128 478.669 352.277 495.362 359.502 497.376C362.886 498.331 364.859 501.84 363.904 505.224C363.115 508.027 360.561 509.875 357.779 509.875H357.758Z" fill="#FFA632"/>
<path d="M355.454 468.06C355.204 473.043 355.121 471.984 350.637 473.52C346.152 475.057 342.249 476.884 340.629 472.171C339.01 467.458 339.508 463.97 343.972 462.433C348.457 460.897 355.682 463.202 355.433 468.06H355.454Z" fill="#FFA632"/>
<path d="M28.9689 376.914C19.5013 408.722 90.7155 438.91 116.585 448.564C141.583 457.886 114.924 411.587 74.1265 396.929C34.2217 382.603 34.3878 378.824 28.9689 376.914Z" fill="#4560AC"/>
<path d="M89.013 392.257C87.0198 405.337 70.2855 428.051 61.4201 434.425C52.5547 440.799 68.2509 446.613 72.2372 436.937C77.1786 424.978 101.989 408.41 105.955 402.327C111.353 394.064 91.11 378.388 88.9922 392.257H89.013Z" fill="#E5A332"/>
<path d="M353.481 408.016C358.63 435.609 420.231 465.153 439.644 462.62C463.687 459.506 447.139 501.092 424.28 492.518C385.891 478.109 351.031 446.862 343.495 426.349C333.01 397.801 348.332 380.402 353.481 407.995V408.016Z" fill="#FFAB2D"/>
<path d="M335.169 426.473C363.219 438.889 424.882 444.329 439.706 429.172C455.382 413.144 484.843 448.793 461.216 458.717C435.242 469.638 392.161 455.27 374.305 450.37C335.771 439.803 325.93 422.383 335.148 426.473H335.169Z" fill="#FCD141"/>
<path d="M407.919 22.7119C399.552 18.7671 394.03 19.2032 386.14 23.3971C381.697 25.764 378.313 31.2867 376.963 36.2489C376.008 39.7577 377.628 45.1766 385.04 48.4362C390.895 51.0315 402.376 53.959 409.414 58.4021C416.453 62.8452 421.373 69.7382 421.373 69.7382C421.643 67.7243 422.453 64.9421 423.865 63.904C429.367 59.9177 430.737 62.6375 427.81 53.8759C425.671 47.4397 415.331 26.2 407.919 22.6912V22.7119Z" fill="#FFAB2D"/>
<path d="M494.954 36.4566C490.927 30.5809 484.947 28.2555 478.801 29.1068C461.797 31.4529 447.471 46.9622 440.412 63.5097C440.412 63.5097 445.229 65.3575 446.039 72.2298C454.904 66.1049 460.095 65.9388 465.223 66.0634C479.03 66.3956 494.788 64.4024 498.463 58.7551C501.785 53.6476 499.314 42.8513 494.934 36.4773L494.954 36.4566Z" fill="#FFAB2D"/>
<path d="M461.922 10.6492C455.797 0.164277 426.647 -7.68381 417.574 12.7046C414.646 19.2654 422.702 40.3805 424.924 54.7272C425.879 60.9143 425.048 61.8278 428.266 61.205C433.561 60.1876 439.997 62.16 443.589 64.7553C446.35 66.7485 447.181 66.6239 450.71 58.7343C453.098 53.3984 460.635 37.2039 463.334 30.477C465.804 24.3522 465.161 16.1926 461.922 10.6699V10.6492Z" fill="#FFDC42"/>
<path d="M322.919 122.516C389.192 132.793 426.273 94.8812 421.975 73.7661C418.467 56.492 447.721 64.3608 447.471 73.1017C447.243 80.9498 445.603 109.103 423.346 127.644C406.591 141.617 380.16 146.496 371.98 146.517C363.8 146.558 322.919 122.536 322.919 122.536V122.516Z" fill="#D0D7ED" stroke="#9095AE" stroke-width="7.52918" stroke-miterlimit="10"/>
<path d="M256.916 91.5177C332.802 96.1892 376.257 122.1 403.829 173.3C431.422 224.52 430.945 260.646 427.581 296.814C423.782 337.881 406.155 405.358 304.005 432.577C246.058 448.004 131.617 427.241 90.8193 371.599C31.8756 291.166 69.7458 194.56 104.419 151.541C133.382 115.602 190.166 87.4068 256.896 91.4969L256.916 91.5177Z" fill="#FCD141"/>
<path d="M273.381 213.246C269.561 212.582 265.74 213.537 262.335 216.007C257.186 219.724 253.262 226.783 252.1 234.465C249.151 253.961 261.214 257.989 266.529 258.819C269.789 259.338 272.841 259.089 275.54 258.113C277.035 257.573 278.426 256.805 279.692 255.829C283.7 252.694 286.15 247.566 286.772 241.005C287.894 228.859 283.596 215.011 273.402 213.267L273.381 213.246Z" fill="#5A207C"/>
<path d="M120.073 204.609C118.184 201.785 115.36 198.235 112.101 197.903C103.463 197.031 95.9891 206.353 93.8091 217.876C91.6706 229.088 95.6361 237.87 103.671 239.718C107.201 240.528 110.024 240.341 112.308 239.51C118.661 237.226 120.758 230.084 121.817 226.492C123.354 221.323 124.205 210.796 120.052 204.609H120.073Z" fill="#5A207C"/>
<path d="M138.842 230.084C158.504 216.423 203.745 227.011 213.067 247.732C216.949 256.369 207.855 263.553 200.921 270.529C179.764 291.748 168.864 300.655 151.652 297.354C135.624 294.281 125.056 258.778 133.963 238.97C135.499 235.565 136.371 231.808 138.842 230.105V230.084Z" fill="#FFF9BB"/>
<path d="M148.206 239.967C147.645 242.583 147.521 244.576 145.839 244.223C144.157 243.87 143.264 241.441 143.825 238.825C144.386 236.209 146.213 234.382 147.894 234.735C149.576 235.088 148.766 237.351 148.206 239.967Z" fill="#F5AB2D"/>
<path d="M183.315 244.368C182.713 246.984 180.242 248.625 177.792 248.064C175.342 247.504 176.11 246.009 176.733 243.393C177.335 240.777 177.564 238.057 179.993 238.617C182.443 239.178 183.917 241.752 183.315 244.368Z" fill="#F5AB2D"/>
<path d="M376.714 119.983C390.645 120.398 396.957 135.534 393.884 141.575" stroke="#9095AE" stroke-width="7.52918" stroke-miterlimit="10"/>
<path d="M393.884 113.11C405.158 112.197 416.785 126.606 411.511 136.011" stroke="#9095AE" stroke-width="7.52918" stroke-miterlimit="10"/>
<path d="M406.487 104.515C418.736 101.027 429.886 113.38 428.266 122.204" stroke="#9095AE" stroke-width="7.52918" stroke-miterlimit="10"/>
<path d="M416.1 92.7634C429.242 87.6975 438.876 99.3035 438.772 107.712" stroke="#9095AE" stroke-width="7.52918" stroke-miterlimit="10"/>
<path d="M421.747 82.0088C428.412 76.2577 442.052 79.3097 445.395 89.8984" stroke="#9095AE" stroke-width="7.52918" stroke-miterlimit="10"/>
<path d="M436.364 267.311C431.879 255.04 361.454 288.613 307.306 298.018C190.291 318.344 202.478 298.371 149.306 321.209C145.465 322.849 141.853 324.905 138.448 327.23C131.285 318.24 123.084 309.707 112.537 302.108C93.4561 288.384 67.628 277.816 62.2922 264.3C61.6485 262.681 59.9876 261.726 58.2851 261.996C56.5618 262.245 55.2745 263.657 55.1292 265.38C49.5027 337.341 58.4719 343.362 64.0154 346.933C68.4377 349.778 64.0569 362.422 58.9702 360.387C56.022 359.204 50.7899 371.35 45.2257 373.447C36.0281 376.935 32.0002 374.215 28.9274 376.935C29.9655 380.07 51.828 402.244 60.9219 402.784C78.715 403.822 86.1271 415.22 103.463 442.502C108.218 449.997 162.345 471.112 210.845 466.586C240.535 463.804 248.259 463.451 257.934 463.451C289.783 463.451 324.269 468.662 365.731 462.745C401.899 457.575 406.985 437.892 398.805 422.321C394.279 413.684 404.847 367.509 414.584 346.041C424.322 324.573 440.537 278.834 436.322 267.331L436.364 267.311Z" fill="#00D2E4"/>
<path d="M409.477 355.508C417.802 348.283 419.671 379.136 408.376 382.209C391.642 386.755 386.721 389.226 379.558 387.15L375.032 365.62C375.032 365.62 400.424 363.377 409.477 355.508Z" fill="#E45827"/>
<path d="M100.744 261.809C95.3662 270.031 82.9505 272.896 73.0054 268.204C63.0604 263.511 59.3647 253.047 64.7421 244.826C70.1195 236.604 82.5353 233.739 92.4596 238.431C102.405 243.123 106.1 253.587 100.723 261.809H100.744Z" fill="#FFAA6E"/>
<path d="M64.493 443.145C62.5828 443.145 60.6727 442.398 59.2194 440.944C57.0393 438.723 55.0046 436.439 53.053 434.238C43.9177 423.94 39.3707 419.497 27.4948 422.528C23.55 423.546 19.5222 421.158 18.5048 417.213C17.4875 413.269 19.8751 409.241 23.8199 408.223C44.9143 402.825 55.1084 414.307 64.0777 424.439C65.8632 426.452 67.7111 428.549 69.725 430.584C72.5902 433.491 72.5487 438.162 69.6212 441.027C68.1886 442.439 66.32 443.145 64.4515 443.145H64.493Z" fill="#F5AB2D"/>
<path d="M64.5138 443.145C64.3477 443.145 64.1815 443.145 64.0154 443.145C60.735 442.917 58.0152 440.55 57.3093 437.353C52.7416 416.487 44.4575 399.213 40.3674 398.278C36.3395 397.572 33.6612 393.773 34.3464 389.745C35.0523 385.738 38.8517 383.039 42.8796 383.724C52.4925 385.385 59.5516 397.095 64.4099 409.469C64.9913 406.479 65.2612 404.05 65.1781 402.555C63.1227 400.604 62.2922 397.572 63.2888 394.749C64.6383 390.908 68.853 388.873 72.7148 390.243C75.2478 391.136 77.3032 393.046 78.5074 395.621C82.7221 404.549 75.8706 426.224 71.4275 438.349C70.3479 441.277 67.5658 443.187 64.493 443.187L64.5138 443.145Z" fill="#F5AB2D"/>
<path d="M320.199 281.138C318.974 292.142 306.164 299.762 291.589 298.143C277.014 296.523 266.197 286.287 267.422 275.283C268.647 264.28 281.457 256.66 296.032 258.279C310.607 259.899 321.424 270.134 320.199 281.138Z" fill="#FFAA6E"/>
<path d="M347.336 376.54C270.931 388.043 148.372 371.018 119.18 362.941C86.7084 353.951 68.9568 349.986 60.3405 342.345C54.8178 337.445 54.1534 359.598 58.3474 362.734C60.6104 364.436 89.4283 381.71 123.354 390.14C152.275 397.323 261.505 418.397 351.509 406.895C383.835 402.763 367.412 373.509 347.315 376.54H347.336Z" fill="#7171F4"/>
<path d="M98.4806 399.69C98.4806 399.69 101.803 439.18 148.891 461.146C132.136 458.011 108.177 451.305 103.484 442.481C101.47 438.661 92.9163 418.189 98.4806 399.69Z" fill="#00AADD"/>
<path d="M138.468 327.23C138.468 327.23 120.239 338.878 110.834 354.574C112.931 344.11 132.51 320.109 134.025 321.894C135.541 323.68 138.468 327.251 138.468 327.251V327.23Z" fill="#00AADD"/>
<path d="M411.491 284.024C457.043 297.893 486.712 348.324 488.643 385.966C489.099 394.956 488.726 416.59 478.365 421.615C466.739 427.262 432.19 432.868 393.905 415.843C378.167 408.846 370.672 407.912 350.533 383.018C340.11 370.146 376.652 342.802 376.714 327.313C376.839 294.883 404.971 282.031 411.511 284.024H411.491Z" fill="#FFAB2D"/>
<path d="M442.571 293.866C430.612 281.554 424.238 275.304 400.175 279.498C375.676 283.754 368.637 293.637 358.817 314.316C349.661 333.563 347.73 354.18 347.335 366.076C346.816 381.482 348.519 401.413 358.838 410.03C366.852 416.736 370.34 415.262 393.884 428.113C409.082 436.398 413.982 443.041 418.674 440.197C421.809 409.843 452.537 384.098 470.04 356.941C478.158 344.338 485.425 351.418 469.022 326.524C462.752 317.015 450.42 301.963 442.551 293.866H442.571Z" fill="#36E4E4"/>
<path d="M359.897 355.633C359.897 355.633 372.043 411.109 389.836 425.747C373.081 422.611 377.275 420.514 363.675 412.147C360 409.884 347.979 389.122 359.897 355.633Z" fill="#24CCCE"/>
</svg>
